<?xml version="1.0" standalone="no"?>
<!DOCTYPE svg PUBLIC "-//W3C//DTD SVG 20010904//EN"
 "http://www.w3.org/TR/2001/REC-SVG-20010904/DTD/svg10.dtd">
<svg version="1.0" xmlns="http://www.w3.org/2000/svg"
 width="512.000000pt" height="512.000000pt" viewBox="0 0 512.000000 512.000000"
 preserveAspectRatio="xMidYMid meet">

<g transform="translate(0.000000,512.000000) scale(0.100000,-0.100000)"
fill="#FFF" stroke="none">
<path d="M3839 4693 c-15 -2 -51 -19 -80 -36 -60 -36 -112 -110 -123 -174 -3
-21 -6 -484 -6 -1029 0 -1085 -2 -1047 59 -1131 19 -26 50 -51 88 -69 l58 -29
545 0 545 0 54 30 c29 16 66 45 82 64 54 65 59 100 59 378 l0 254 -25 24 c-33
34 -83 34 -116 -1 -24 -25 -24 -27 -27 -272 -1 -153 -7 -255 -13 -268 -6 -12
-22 -27 -36 -33 -16 -8 -181 -11 -534 -11 l-511 0 -29 29 -29 29 0 1010 0
1010 26 31 26 31 523 0 522 0 26 -26 26 -26 3 -668 3 -668 24 -26 c33 -35 83
-35 116 -1 l25 24 0 669 c0 741 2 721 -66 800 -19 22 -55 51 -82 64 l-47 23
-530 1 c-291 1 -542 -1 -556 -3z"/>
<path d="M3895 4225 c-31 -30 -32 -73 -4 -109 l20 -26 463 0 463 0 21 23 c30
32 29 81 -3 112 l-24 25 -456 0 -456 0 -24 -25z"/>
<path d="M680 4186 c-30 -7 -70 -20 -89 -30 -57 -30 -127 -110 -152 -173 -23
-57 -24 -67 -27 -473 -2 -228 -1 -429 3 -447 15 -81 114 -102 150 -32 13 23
15 99 15 445 0 402 1 419 21 460 12 26 36 53 57 66 l37 23 1402 5 1402 5 23
22 c30 30 30 86 0 116 l-23 22 -1382 2 c-1059 1 -1395 -1 -1437 -11z"/>
<path d="M704 3836 c-59 -26 -66 -103 -12 -140 20 -14 154 -16 1409 -16 1367
0 1387 0 1412 20 51 41 38 117 -24 139 -51 18 -2744 15 -2785 -3z"/>
<path d="M2995 3228 c-58 -34 -60 -82 -5 -142 22 -24 40 -46 40 -50 0 -3 -168
-6 -373 -6 -362 0 -374 -1 -395 -20 -35 -33 -33 -84 4 -117 25 -23 25 -23 396
-23 l370 0 -36 -40 c-19 -22 -39 -52 -42 -67 -9 -34 12 -74 48 -91 43 -20 81
4 200 125 103 105 126 141 114 180 -3 10 -59 71 -123 135 -122 122 -156 141
-198 116z"/>
<path d="M209 2891 c-86 -17 -164 -86 -194 -170 -23 -66 -22 -586 1 -619 41
-58 124 -44 143 25 6 22 11 145 11 293 1 267 2 274 47 298 16 9 217 12 758 12
l737 0 29 -29 29 -29 0 -1010 0 -1010 -26 -31 -26 -31 -748 0 -747 0 -26 26
-26 26 -3 638 -3 638 -24 26 c-30 32 -78 34 -112 7 l-24 -19 -3 -643 c-3 -714
-4 -698 63 -777 19 -22 56 -51 83 -64 l47 -23 775 0 775 0 54 30 c54 30 83 61
117 125 18 34 19 79 19 1080 l0 1045 -31 55 c-37 66 -101 113 -174 129 -57 12
-1459 14 -1521 2z"/>
<path d="M3935 2833 c-50 -13 -78 -68 -59 -118 17 -43 40 -45 509 -45 l446 0
24 25 c34 33 34 83 -1 116 l-26 24 -436 2 c-240 0 -446 -1 -457 -4z"/>
<path d="M2362 2527 c-100 -100 -123 -129 -124 -153 -1 -44 9 -59 135 -181 97
-95 120 -113 147 -113 42 0 80 39 80 83 0 24 -10 45 -35 75 l-36 41 371 3 372
3 24 28 c37 43 26 104 -23 126 -16 7 -143 11 -390 11 l-366 0 42 45 c31 34 41
53 41 78 0 44 -34 77 -81 77 -31 0 -47 -13 -157 -123z"/>
<path d="M4328 2596 c-23 -17 -39 -61 -31 -83 29 -83 138 -81 159 1 7 28 -18
81 -41 90 -27 10 -69 6 -87 -8z"/>
<path d="M265 2438 c-52 -28 -61 -89 -19 -129 l26 -24 700 0 700 0 24 28 c39
45 29 98 -23 125 -30 16 -1379 16 -1408 0z"/>
<path d="M4343 2140 c-45 -19 -48 -37 -53 -381 l-5 -326 -29 -37 c-53 -70 12
-66 -1109 -66 -731 0 -1023 -3 -1047 -11 -43 -16 -67 -67 -48 -107 10 -20 44
-47 76 -58 1 0 -18 -85 -43 -187 -50 -208 -54 -244 -26 -278 l19 -24 580 -3
c375 -2 589 1 606 8 56 21 64 113 12 143 -13 8 -84 14 -195 17 l-173 5 -34
140 c-19 77 -36 150 -39 163 l-5 22 662 0 c713 0 723 1 803 52 85 55 137 132
155 231 7 33 10 177 8 356 -3 285 -4 301 -23 320 -25 24 -63 33 -92 21z
m-1645 -1142 l39 -163 -129 -3 c-70 -1 -186 -1 -256 0 l-129 3 39 163 40 162
178 0 178 0 40 -162z"/>
<path d="M2070 1667 c-52 -26 -61 -95 -18 -134 19 -17 68 -18 1070 -18 l1050
0 24 28 c30 36 30 68 0 104 l-24 28 -1039 2 c-824 2 -1043 0 -1063 -10z"/>
<path d="M242 1007 c-30 -32 -29 -81 3 -112 l24 -25 699 0 699 0 27 26 c34 34
34 77 1 109 l-24 25 -704 0 -704 0 -21 -23z"/>
<path d="M941 799 c-33 -13 -50 -38 -51 -72 0 -39 14 -62 48 -76 33 -14 77 -2
98 27 45 59 -25 149 -95 121z"/>
</g>
</svg>
