<?xml version="1.0" standalone="no"?>
<!DOCTYPE svg PUBLIC "-//W3C//DTD SVG 20010904//EN"
 "http://www.w3.org/TR/2001/REC-SVG-20010904/DTD/svg10.dtd">
<svg version="1.0" xmlns="http://www.w3.org/2000/svg"
 width="512.000000pt" height="512.000000pt" viewBox="0 0 512.000000 512.000000"
 preserveAspectRatio="xMidYMid meet">

<g transform="translate(0.000000,512.000000) scale(0.100000,-0.100000)"
fill="#FFF" stroke="none">
<path d="M320 4147 c-49 -16 -133 -102 -148 -153 -17 -60 -17 -2328 0 -2388
16 -55 99 -138 154 -154 30 -9 195 -12 619 -12 l578 0 -7 -32 c-11 -58 -73
-171 -126 -231 l-52 -57 -84 0 c-77 0 -87 -2 -109 -25 -33 -32 -33 -78 0 -110
l24 -25 511 0 511 0 24 25 c16 15 25 36 25 55 0 19 -9 40 -25 55 l-24 25 -316
0 c-173 0 -315 2 -315 4 0 2 16 30 35 62 42 70 71 143 80 207 l7 47 255 0 254
0 24 25 c33 32 33 78 0 110 l-24 25 -911 0 -911 0 -24 25 c-25 24 -25 24 -25
240 l0 215 935 0 936 0 24 25 c16 15 25 36 25 55 0 19 -9 40 -25 55 l-24 25
-936 0 -935 0 0 855 0 856 25 24 24 25 1551 0 1551 0 24 -25 c16 -15 25 -36
25 -55 0 -70 86 -105 135 -55 28 27 32 65 13 129 -16 55 -99 138 -154 154 -56
16 -3141 16 -3194 -1z"/>
<path d="M2560 3667 c-49 -16 -133 -102 -148 -153 -17 -58 -17 -2328 0 -2385
16 -55 73 -118 132 -145 l51 -24 518 0 518 0 24 25 c33 32 33 78 0 110 l-24
25 -511 0 -511 0 -24 25 c-25 24 -25 24 -25 240 l0 215 535 0 536 0 24 25 c33
32 33 78 0 110 l-24 25 -536 0 -535 0 0 720 0 720 800 0 800 0 0 -135 c0 -131
1 -137 25 -160 32 -33 78 -33 110 0 l25 24 0 272 c0 184 -4 285 -12 313 -16
55 -99 138 -154 154 -56 16 -1542 15 -1594 -1z m1575 -172 c21 -20 25 -34 25
-80 l0 -55 -800 0 -800 0 0 55 c0 46 4 60 25 80 l24 25 751 0 751 0 24 -25z"/>
<path d="M505 3495 c-24 -23 -25 -31 -25 -135 0 -104 1 -112 25 -135 15 -16
36 -25 55 -25 19 0 40 9 55 25 24 23 25 31 25 135 0 104 -1 112 -25 135 -15
16 -36 25 -55 25 -19 0 -40 -9 -55 -25z"/>
<path d="M505 3015 l-25 -24 0 -271 0 -271 25 -24 c15 -16 36 -25 55 -25 19 0
40 9 55 25 l25 24 0 271 0 271 -25 24 c-15 16 -36 25 -55 25 -19 0 -40 -9 -55
-25z"/>
<path d="M2745 3015 c-24 -23 -25 -31 -25 -135 0 -104 1 -112 25 -135 15 -16
36 -25 55 -25 19 0 40 9 55 25 24 23 25 31 25 135 0 104 -1 112 -25 135 -15
16 -36 25 -55 25 -19 0 -40 -9 -55 -25z"/>
<path d="M4000 2707 c-49 -16 -133 -102 -148 -153 -17 -58 -17 -1369 0 -1425
16 -55 73 -118 132 -145 51 -24 54 -24 416 -24 346 0 367 2 410 21 60 27 98
64 126 124 l24 50 0 679 c0 504 -3 689 -12 720 -16 55 -99 138 -154 154 -54
16 -743 15 -794 -1z m775 -172 c21 -20 25 -34 25 -80 l0 -55 -400 0 -400 0 0
55 c0 46 4 60 25 80 l24 25 351 0 351 0 24 -25z m25 -695 l0 -400 -400 0 -400
0 0 400 0 400 400 0 400 0 0 -400z m0 -615 c0 -46 -4 -60 -25 -80 l-24 -25
-351 0 -351 0 -24 25 c-21 20 -25 34 -25 80 l0 55 400 0 400 0 0 -55z"/>
<path d="M2745 2535 l-25 -24 0 -271 0 -271 25 -24 c15 -16 36 -25 55 -25 19
0 40 9 55 25 l25 24 0 271 0 271 -25 24 c-15 16 -36 25 -55 25 -19 0 -40 -9
-55 -25z"/>
<path d="M1786 1899 c-20 -16 -26 -29 -26 -59 0 -30 6 -43 26 -59 23 -18 41
-21 136 -21 102 0 110 1 133 25 16 15 25 36 25 55 0 19 -9 40 -25 55 -23 24
-31 25 -133 25 -95 0 -113 -3 -136 -21z"/>
<path d="M3225 1415 c-16 -15 -25 -36 -25 -55 0 -19 9 -40 25 -55 23 -24 31
-25 135 -25 104 0 112 1 135 25 16 15 25 36 25 55 0 19 -9 40 -25 55 -23 24
-31 25 -135 25 -104 0 -112 -1 -135 -25z"/>
</g>
</svg>
