<?xml version="1.0" standalone="no"?>
<!DOCTYPE svg PUBLIC "-//W3C//DTD SVG 20010904//EN"
 "http://www.w3.org/TR/2001/REC-SVG-20010904/DTD/svg10.dtd">
<svg version="1.0" xmlns="http://www.w3.org/2000/svg"
 width="512.000000pt" height="512.000000pt" viewBox="0 0 512.000000 512.000000"
 preserveAspectRatio="xMidYMid meet">

<g transform="translate(0.000000,512.000000) scale(0.100000,-0.100000)"
fill="#FFF" stroke="none">
<path d="M542 4325 c-56 -25 -91 -54 -119 -103 l-28 -47 -5 -650 -5 -650 -141
-5 c-124 -4 -145 -8 -164 -25 -51 -46 -50 -18 -50 -1020 0 -1016 -2 -978 55
-1023 28 -22 29 -22 550 -22 518 0 523 0 549 21 15 12 32 33 37 47 6 14 10
167 9 354 l0 328 400 0 400 0 0 -129 0 -129 -207 -4 c-245 -5 -286 -15 -378
-99 -80 -74 -118 -156 -123 -268 -4 -76 -2 -88 15 -104 19 -16 118 -17 1837
-17 2043 0 1856 -8 1896 76 20 40 20 60 18 1237 -3 1191 -3 1196 -24 1224 -44
61 -59 63 -386 63 l-297 0 -3 398 -3 399 -30 49 c-19 30 -49 60 -79 79 l-49
30 -1821 2 c-1570 2 -1826 0 -1854 -12z m3620 -125 c20 -6 46 -22 58 -37 19
-25 20 -38 20 -404 l0 -379 -517 0 c-571 0 -560 1 -607 -63 -21 -28 -21 -41
-24 -543 l-3 -514 -929 0 -929 0 0 260 c0 213 -3 265 -16 289 -31 61 -29 61
-372 61 l-313 0 0 634 c0 625 0 634 21 660 11 14 35 30 52 35 46 13 3511 14
3559 1z m786 -2122 l-3 -1163 -835 -3 c-459 -1 -845 0 -857 3 l-23 5 0 1160 0
1160 860 0 860 0 -2 -1162z m-3858 587 l0 -75 -460 0 -460 0 0 68 c0 38 3 71
6 75 3 3 210 6 460 6 l454 1 0 -75z m0 -840 l0 -625 -460 0 -460 0 0 625 0
625 460 0 460 0 0 -625z m2000 70 l0 -225 -930 0 -930 0 0 225 0 225 930 0
930 0 0 -225z m-490 -495 l0 -130 -215 0 -215 0 0 130 0 130 215 0 215 0 0
-130z m490 0 l0 -130 -175 0 -175 0 0 130 0 130 175 0 175 0 0 -130z m0 -380
l0 -110 -815 0 c-779 0 -815 1 -815 18 0 33 52 122 86 148 70 54 54 53 827 54
l717 0 0 -110z m-2000 -35 l0 -75 -457 2 -458 3 -3 73 -3 72 461 0 460 0 0
-75z"/>
<path d="M3364 3140 c-45 -18 -44 -15 -42 -1012 3 -894 4 -948 21 -965 17 -17
62 -18 730 -21 506 -2 720 1 739 9 15 6 31 24 37 41 15 43 15 1863 1 1905 -6
17 -22 35 -36 42 -30 13 -1416 15 -1450 1z m1356 -995 l0 -865 -630 0 -630 0
0 865 0 865 630 0 630 0 0 -865z"/>
<path d="M4054 1082 c-23 -15 -34 -50 -24 -76 21 -55 99 -57 119 -4 9 25 -3
68 -22 80 -15 10 -59 10 -73 0z"/>
<path d="M2329 1951 c-31 -31 -36 -59 -17 -94 17 -33 39 -46 76 -47 42 0 82
40 82 82 0 38 -48 88 -85 88 -16 0 -38 -12 -56 -29z"/>
</g>
</svg>
